<svg xmlns="http://www.w3.org/2000/svg" xmlns:xlink="http://www.w3.org/1999/xlink" width="1600" height="1200" version="1.1" viewBox="0 0 1600 1200"><title>Whangaehu</title><desc>Created with Sketch.</desc><g id="Patterns" fill="none" fill-rule="evenodd" stroke="none" stroke-width="1"><g id="Whangaehu" stroke-width="5"><g id="Shape"><path stroke="#5ACEF2" d="M1528.87044,826.074857 C1568.70623,878.95138 1616.69822,922.391553 1659.4643,971.872638 C1678.63949,994.058361 1698.00373,1017.33194 1712.61468,1044.39655 C1720.47381,1058.95078 1728.81907,1077.27131 1726.65173,1095.36108 C1720.4333,1147.2816 1646.89914,1142.59227 1617.1911,1145.63333 C1573.04765,1150.10014 1522.33467,1154.59992 1483.30236,1182.5958 C1457.73319,1200.93281 1448.14559,1228.0139 1452.91913,1262.94075 C1458.04377,1300.40595 1446.58592,1327.60241 1420.51036,1348.50248 C1387.81801,1374.68526 1346.55084,1385.35782 1308.59206,1392.93986 C1262.85922,1402.03112 1216.54703,1406.06103 1170.2201,1404.98048 C1125.16516,1403.92558 1081.51459,1413.13942 1036.75672,1419.13088 C977.414908,1427.0673 916.169078,1430.98195 857.495695,1414.71352 C806.411366,1400.54663 760.269375,1369.32838 725.679761,1321.05054 C689.55073,1270.6629 671.665139,1207.17976 642.328447,1151.43524 C624.030994,1116.66497 598.515836,1070.66998 564.32458,1057.15416 C552.920743,1052.64614 532.138617,1058.72826 541.246833,1036.55078 C546.452492,1023.86734 556.19538,1012.74151 563.892463,1002.37389 C576.32933,985.619215 589.178058,969.32606 601.824232,952.802146 C628.777528,917.578602 657.641592,881.605095 677.843061,839.895606 C703.297452,787.381703 665.460209,746.966107 670.071707,693.718723 C672.549628,665.063538 688.875548,642.193782 706.146723,624.227632 C717.320998,612.590841 729.548558,602.511666 742.032688,593.108282 C755.070467,583.284589 770.498394,575.80144 781.868472,563.101515 C798.072859,545.028227 791.037454,523.633674 787.999131,500.269437 C782.651473,459.209225 781.476775,417.500264 784.501685,376.088726 C788.201686,325.330231 796.877785,273.121258 815.154983,226.994403 C822.264657,209.036495 831.271596,189.998968 844.646967,177.958351 C858.022337,165.917734 871.856833,166.741869 887.183482,170.368065 C932.643538,181.081824 978.009069,206.011918 1021.13299,229.639878 C1075.1071,259.218095 1128.02118,292.274163 1178.55186,329.879458 C1213.4318,355.839721 1248.42652,383.885046 1277.60792,419.083866 C1286.09497,429.327868 1294.17016,440.297109 1300.69917,452.54376 C1305.18239,460.941699 1307.58604,471.779079 1314.0813,478.091955 C1334.4043,497.797031 1375.20559,491.912705 1399.03955,490.767157 C1446.60617,488.484302 1493.42335,477.63044 1540.92921,474.993207 C1566.85623,473.55097 1607.46172,469.924774 1626.50187,496.865758 C1644.40772,522.191437 1628.18983,562.079587 1617.48818,586.482234 C1596.45624,634.463393 1568.19984,677.211292 1542.87373,721.813496 C1532.46242,740.16699 1521.05183,759.369343 1514.30675,780.327105 C1508.31113,799.002011 1518.66168,812.517831 1528.87044,826.074857 Z" transform="translate(-146.000000, -400.000000) translate(1133.000000, 797.000000) rotate(-180.000000) translate(-1133.000000, -797.000000)"/><path stroke="#FF8062" d="M1527.07255,781.209958 C1558.78057,827.739777 1597.00561,869.043839 1628.94301,916.330776 C1647.63725,944.023178 1679.83102,990.577687 1665.37351,1029.61862 C1649.51275,1072.51922 1594.2261,1073.68781 1562.26846,1077.14422 C1524.23232,1081.25899 1479.56448,1086.87976 1447.01316,1113.66692 C1436.71817,1122.13511 1427.94787,1133.34375 1424.23061,1148.10754 C1420.25024,1163.90826 1424.60166,1177.73389 1425.16836,1193.55106 C1426.35572,1226.73257 1410.12391,1253.37159 1388.64341,1271.66586 C1358.28467,1297.5313 1320.32274,1309.7604 1284.46569,1318.2862 C1243.84169,1327.90239 1202.54341,1332.64328 1161.16195,1332.44101 C1121.61463,1332.27642 1082.48557,1333.34626 1042.89777,1334.58069 C991.125987,1336.2266 938.625594,1333.56846 888.405481,1316.78843 C838.934217,1300.24705 793.956048,1269.24637 758.625214,1223.64649 C724.157917,1179.14937 700.903117,1124.76034 680.535771,1069.35907 C668.979208,1037.914 649.455161,990.923327 621.88942,975.040315 C609.631232,967.97114 597.602422,968.456683 610.636444,950.07189 C627.050406,926.922194 649.171813,908.348122 668.183135,888.547849 C695.607202,859.974886 723.719402,830.842314 746.738078,796.870772 C761.438457,775.177705 767.9892,754.126541 766.977242,726.039121 C766.194661,704.642317 762.646061,683.46771 764.4406,661.988611 C768.6436,611.574448 801.18143,577.00215 829.948029,544.80819 C848.453371,524.102667 865.353073,508.310179 874.878973,478.856656 C886.145441,444.045701 890.874659,406.173358 898.403629,370.029218 C906.6747,330.338146 916.227586,289.050543 934.28092,254.091457 C950.350817,222.967337 969.895103,209.010037 999.147442,217.395938 C1044.77326,230.464448 1089.74469,262.658408 1130.25,292.441114 C1171.47718,322.74228 1211.99599,356.812576 1246.1597,398.462279 C1264.60432,420.953612 1277.19308,447.362206 1293.57331,471.524135 C1314.17678,501.85822 1360.78758,490.369782 1388.48825,487.802166 C1434.47163,483.539264 1579.16141,451.641567 1565.81031,554.955213 C1560.23779,598.078003 1538.29179,637.876058 1522.24214,675.929452 C1515.5902,691.721939 1505.9631,710.67457 1504.45866,728.771328 C1502.81928,748.481077 1517.5399,767.20328 1527.07255,781.209958 Z" transform="translate(-146.000000, -400.000000) translate(1137.000000, 775.000000) rotate(-180.000000) translate(-1137.000000, -775.000000)"/><path stroke="#F1B170" d="M1530.33132,733.2589 C1554.56193,775.424345 1583.56043,815.259616 1604.35168,860.800931 C1617.83936,890.294511 1631.08426,929.701622 1613.68515,960.907839 C1594.0471,996.123931 1550.74492,1004.33306 1518.92749,1008.8205 C1486.14569,1013.43968 1447.0112,1017.32604 1420.21793,1044.02836 C1411.69372,1052.5339 1404.66664,1064.00363 1403.35834,1077.73766 C1402.09724,1090.91178 1405.65799,1104.08591 1404.47782,1117.49882 C1401.83423,1147.61817 1386.86966,1172.43494 1367.57554,1190.43409 C1310.50244,1243.68227 1225.55705,1255.52252 1156.69573,1256.91404 C1122.22797,1257.60568 1086.75538,1253.97456 1052.06508,1251.37267 C1007.04996,1247.9968 961.967407,1240.75103 919.036136,1223.28707 C827.75829,1186.16897 766.578193,1103.84713 723.849236,1001.41005 C710.402024,969.166371 700.110927,934.279632 679.036434,908.367768 C668.172111,894.987794 670.545942,885.378914 681.653043,873.176378 C699.018425,854.106827 720.20082,839.532947 739.474709,823.616953 C766.88841,800.982154 794.888824,778.009768 819.132922,750.895765 C835.844152,732.20497 847.706563,714.197583 851.307772,686.169625 C853.877174,666.186119 853.276973,645.823857 854.821311,625.716843 C857.761625,587.520105 867.830175,549.61155 885.654138,517.927772 C899.816198,492.814589 916.675792,469.990412 934.101869,448.228398 C956.754421,419.895789 975.913664,391.110318 993.117195,357.483355 C1015.92485,312.971269 1047.97157,230.863514 1101.69298,252.592592 C1160.94434,276.569505 1216.47985,337.491615 1254.49486,396.519945 C1267.26095,416.338774 1277.74087,440.645041 1294.95789,455.26009 C1320.73284,477.104441 1346.88544,476.338695 1377.54293,476.248123 C1423.44149,476.124615 1523.31773,463.963248 1524.39674,547.882446 C1524.8216,581.130653 1513.03337,612.567416 1507.38878,644.547613 C1501.0226,680.364775 1513.78194,704.522833 1530.33132,733.2589 Z" transform="translate(-146.000000, -400.000000) translate(1147.000000, 753.000000) rotate(-180.000000) translate(-1147.000000, -753.000000)"/><path stroke="#5BE7C3" d="M1532.28383,702.499329 C1556.25118,757.45462 1609.99554,847.757708 1569.11879,908.867597 C1547.52658,941.162779 1509.33536,953.299185 1477.29792,960.53166 C1451.51548,966.381819 1420.4227,968.578714 1400.94248,993.378122 C1386.62414,1011.61153 1392.98035,1038.14706 1387.49458,1060.97173 C1380.68629,1089.26807 1365.05892,1112.42186 1345.85535,1129.82424 C1292.19197,1178.46037 1217.57739,1193.38609 1153.02344,1196.56213 C1085.97963,1199.85336 1012.10728,1184.45863 949.01755,1154.8458 C870.354435,1117.90999 811.421201,1047.97138 770.207072,959.404414 C762.602566,943.055235 755.69306,926.278197 748.392194,909.731544 C743.486714,898.631876 736.212839,887.894242 732.346484,876.218608 C725.909307,856.75099 733.49357,840.8379 745.652683,828.150213 C763.142372,809.883894 784.626619,796.88354 804.565674,783.175573 C831.832585,764.415569 859.706777,745.992916 885.070875,723.982824 C902.115224,709.172295 919.955787,693.218064 926.055586,667.521796 C930.218833,649.996003 931.082522,631.433473 930.934075,613.282347 C930.610192,574.363567 932.283588,542.891193 947.168717,507.247186 C971.662379,448.729139 1009.32729,396.11062 1049.11768,352.32905 C1080.34541,317.968623 1129.75783,264.593121 1175.25666,287.565897 C1216.07943,308.136077 1239.95907,357.372858 1266.85486,397.18027 C1279.93164,416.532694 1294.62109,434.206593 1311.88136,447.972157 C1333.64226,465.32516 1354.12787,472.607004 1379.91032,475.445688 C1423.30391,480.226198 1488.73505,481.468637 1502.14921,544.989351 C1507.10192,568.431127 1504.27469,592.712167 1506.8725,616.458382 C1510.26653,647.856704 1520.1922,674.778955 1532.28383,702.499329 Z" transform="translate(-146.000000, -400.000000) translate(1157.000000, 739.500000) rotate(-180.000000) translate(-1157.000000, -739.500000)"/><path stroke="#FF8062" d="M1527.36202,689.464429 C1544.42899,749.596148 1566.85002,825.378589 1525.62903,878.821684 C1505.6625,904.711272 1477.5772,919.184071 1450.39549,929.999543 C1430.92796,937.750769 1400.01727,940.032479 1388.08186,963.862762 C1379.31574,981.399807 1378.10197,1005.59253 1370.172,1024.38163 C1359.27504,1050.21356 1342.76776,1071.4903 1323.40138,1088.14597 C1272.94899,1131.54789 1207.2368,1148.31887 1147.31026,1153.12117 C1017.09966,1163.54126 884.609867,1080.55125 814.932698,944.011058 C794.156994,903.310945 767.339409,859.991395 800.913649,818.409899 C837.569518,773.047519 892.789331,751.795486 936.539014,719.563237 C953.255331,707.256828 974.557002,692.462777 983.882806,670.181092 C989.493122,656.78737 989.877483,639.983437 990.133724,625.23881 C990.80804,587.685316 993.363702,553.912706 1005.73742,518.871565 C1024.84756,464.720068 1055.31994,414.761318 1089.85171,373.8388 C1119.96671,338.155155 1162.91395,296.219459 1206.65015,321.944302 C1240.18393,341.713635 1261.45188,383.674043 1287.50749,414.604811 C1316.50312,449.052872 1352.36329,472.265364 1391.7434,483.608018 C1430.05135,494.612946 1472.06804,502.034683 1492.25708,548.789154 C1499.18232,564.827025 1506.41774,585.593061 1509.01386,603.344275 C1513.20487,632.612129 1519.34123,661.41415 1527.36202,689.464429 L1527.36202,689.464429 Z" transform="translate(-146.000000, -400.000000) translate(1167.000000, 734.000000) rotate(-180.000000) translate(-1167.000000, -734.000000)"/><path stroke="#F1B170" d="M1512.57366,658.040683 C1520.46932,718.760915 1521.34661,782.075325 1484.66219,829.93173 C1467.54144,852.25813 1445.89925,868.119674 1424.01411,882.490596 C1407.91238,893.064959 1391.28426,901.983989 1379.25857,919.319685 C1368.11693,935.370646 1359.64766,954.007549 1348.89067,970.478519 C1334.70109,992.306111 1317.72275,1011.20155 1298.60817,1026.43864 C1250.69437,1064.5607 1192.40824,1082.39053 1136.64602,1088.57538 C1109.65233,1091.58133 1080.37093,1093.14607 1053.55944,1084.95176 C1027.66575,1077.0457 1002.06223,1064.54423 978.253794,1049.96742 C927.640623,1019.01023 883.775875,973.673887 851.977306,916.354911 C830.173152,877.038705 818.383658,838.809583 846.619059,798.925128 C878.451369,753.967614 928.362704,729.162333 969.501089,699.984009 C997.716245,679.97178 1029.33935,660.354855 1034.60987,617.826809 C1038.80739,583.987201 1042.21534,551.868809 1053.07356,519.882185 C1069.23378,472.701336 1092.99474,429.962199 1122.94673,394.200446 C1150.33857,361.620866 1184.99173,333.974343 1224.17307,351.375923 C1255.21581,365.186832 1279.30093,396.127549 1306.42285,418.248062 C1336.64903,442.954518 1369.85802,456.57601 1404.82835,467.529205 C1436.25575,477.411788 1465.84759,492.598022 1486.16034,524.839947 C1490.31737,531.428335 1494.6836,538.601442 1497.8891,545.972202 C1501.97864,555.377126 1501.66146,564.699695 1502.46453,575.241116 C1504.55654,603.060585 1509.00375,630.55887 1512.57366,658.040683 Z" transform="translate(-146.000000, -400.000000) translate(1173.500000, 718.500000) rotate(-180.000000) translate(-1173.500000, -718.500000)"/><path stroke="#5BE7C3" d="M1485.9342,616.003735 C1485.25967,673.678934 1473.89387,728.186616 1442.7644,773.134007 C1429.45596,792.361823 1413.56408,808.199406 1398.92008,825.818718 C1387.12933,840.02305 1375.98613,853.221036 1362.42811,864.926 C1330.26662,892.641771 1304.12866,928.507298 1269.95032,953.187532 C1224.32525,986.182497 1172.06281,1004.42046 1120.2051,1011.71235 C1094.88332,1015.27581 1068.72512,1016.52137 1043.10654,1012.49598 C1021.10344,1009.03976 1000.03118,996.90586 980.483362,984.491505 C942.17017,960.174215 904.969949,925.61199 880.093355,881.885412 C825.247481,785.482373 933.38107,715.392818 988.881236,674.347082 C1014.40538,655.465713 1053.40659,633.5983 1063.86177,596.198507 C1071.33554,569.480834 1075.88861,542.30948 1085.51412,516.416682 C1111.36878,446.879793 1163.85381,365.093523 1233.79562,375.981862 C1263.72443,380.634152 1291.00234,399.532018 1318.94129,412.218582 C1347.70991,425.284588 1377.40264,432.568227 1407.30446,440.561257 C1435.25016,448.026368 1457.52308,458.650747 1475.57345,487.13365 C1484.20066,500.735825 1483.43844,517.01884 1484.2074,533.706043 C1485.46203,561.116611 1486.23773,588.683904 1485.9342,616.003735 Z" transform="translate(-146.000000, -400.000000) translate(1175.500000, 695.000000) rotate(-180.000000) translate(-1175.500000, -695.000000)"/><path stroke="#5ACEF2" d="M1446.03446,582.391195 C1434.79785,669.446683 1393.06571,764.486648 1331.70326,815.044024 C1259.52287,874.516027 1181.32576,924.595981 1095.08609,938.992733 C1055.10292,945.668414 1011.30444,948.95275 973.576696,927.123026 C944.863905,910.520254 911.511959,885.702526 895.71047,850.801309 C857.050845,765.433261 943.040656,697.474665 992.032025,657.980316 C1018.40836,636.718561 1051.98314,616.000079 1071.86331,584.951166 C1083.39704,566.949053 1089.28546,543.135557 1098.59754,523.363688 C1126.81737,463.447189 1173.2697,415.120527 1231.13421,406.477537 C1257.8887,402.485299 1284.83902,407.42415 1311.39092,411.350537 C1338.57083,415.36747 1366.08838,417.548796 1393.09947,423.154392 C1414.66108,427.632284 1440.07176,435.213421 1448.01302,463.373106 C1458.02738,498.858754 1450.61959,546.839696 1446.03446,582.391195 Z" transform="translate(-146.000000, -400.000000) translate(1169.500000, 674.500000) rotate(-180.000000) translate(-1169.500000, -674.500000)"/><path stroke="#F1B170" d="M1412.67569,577.375891 C1396.28793,659.222787 1361.58563,739.059553 1303.24818,787.920543 C1272.31154,813.829802 1236.39909,831.715017 1201.91989,849.386038 C1162.8367,869.413194 1122.00251,884.95875 1080.2962,892.669741 C1028.36782,902.275526 944.265616,910.933915 917.135218,838.725757 C890.207638,767.053086 958.253354,703.618652 998.492609,667.469263 C1024.29116,644.311576 1051.90157,623.056921 1076.55081,597.740816 C1089.91658,584.015911 1100.21301,568.157303 1111.52354,552.059785 C1142.78468,507.457964 1187.35074,472.148875 1232.77539,453.299787 C1276.8006,435.027374 1331.26422,426.937425 1377.73677,432.976053 C1397.78879,435.571098 1412.12132,444.328345 1418.1856,469.224301 C1426.58906,503.833139 1419.44984,543.566162 1412.67569,577.375891 Z" transform="translate(-146.000000, -400.000000) translate(1166.500000, 665.000000) rotate(-180.000000) translate(-1166.500000, -665.000000)"/><path stroke="#FF8062" d="M1376.49035,582.420099 C1360.21043,654.483212 1325.09569,720.303152 1273.87629,763.554146 C1216.46176,812.039232 1142.53136,838.98086 1074.58039,852.681384 C1038.46121,859.958249 960.189502,879.688643 941.779371,823.221156 C923.36924,766.753669 976.590764,711.106573 1007.22263,680.473187 C1044.40018,643.350511 1084.48316,607.507645 1124.51896,574.199785 C1159.30339,545.239996 1196.42026,515.632098 1234.09665,493.26825 C1255.34603,480.581379 1277.48158,470.222686 1300.241,462.314911 C1317.09392,456.506546 1338.52409,447.843221 1356.1927,452.166679 C1400.75856,463.086078 1384.2764,547.963693 1376.49035,582.420099 Z" transform="translate(-146.000000, -400.000000) translate(1162.000000, 656.500000) rotate(-180.000000) translate(-1162.000000, -656.500000)"/><path stroke="#5ACEF2" d="M1341.93332,586.999565 C1306.2133,723.279394 1193.04149,790.304285 1084.0752,813.666306 C1058.75442,819.089192 987.772674,838.641204 973.619458,797.010888 C959.904318,756.647833 1003.52318,708.779964 1023.94425,686.100947 C1087.22261,615.825616 1165.40228,563.719833 1239.48425,512.099558 C1262.60791,495.987252 1304.31272,461.022395 1332.99657,477.151159 C1364.14039,494.695305 1349.33343,558.741311 1341.93332,586.999565 Z" transform="translate(-146.000000, -400.000000) translate(1161.500000, 648.000000) rotate(-180.000000) translate(-1161.500000, -648.000000)"/><path stroke="#5ACEF2" d="M1303.34474,588.229739 C1272.28074,688.589725 1181.92872,746.149977 1098.85923,765.125431 C1078.51278,769.768449 1026.83862,784.224371 1011.42833,756.218081 C997.167558,730.311029 1031.20002,692.771734 1043.93261,677.854804 C1072.27834,644.637468 1105.87128,617.273298 1139.0585,590.971095 C1169.74384,566.636412 1200.76051,541.692539 1233.04841,521.111786 C1250.0545,510.278077 1281.95021,487.161775 1301.27561,503.889811 C1322.08187,521.885622 1310.24184,565.944899 1303.34474,588.229739 Z" transform="translate(-146.000000, -400.000000) translate(1160.500000, 635.500000) rotate(-180.000000) translate(-1160.500000, -635.500000)"/><path stroke="#5BE7C3" d="M1257.02553,587.551323 C1233.34927,653.090471 1169.93747,695.649321 1114.00061,709.791676 C1098.94927,713.588779 1066.41808,723.439831 1053.72084,705.936917 C1042.03153,689.817762 1060.87107,666.186769 1069.23217,655.273187 C1106.28891,606.89925 1160.55491,563.689703 1210.27506,537.151166 C1222.77613,530.479467 1245.24828,517.383169 1258.10788,530.850117 C1271.29894,544.679478 1262.46431,572.502935 1257.02553,587.551323 Z" transform="translate(-146.000000, -400.000000) translate(1157.500000, 620.500000) rotate(-180.000000) translate(-1157.500000, -620.500000)"/></g></g></g></svg>